<?xml version="1.0" standalone="no"?>
<!DOCTYPE svg PUBLIC "-//W3C//DTD SVG 20010904//EN"
 "http://www.w3.org/TR/2001/REC-SVG-20010904/DTD/svg10.dtd">
<svg version="1.0" xmlns="http://www.w3.org/2000/svg"
 width="217.000000pt" height="249.000000pt" viewBox="0 0 217.000000 249.000000"
 preserveAspectRatio="xMidYMid meet">

<g transform="translate(0.000000,249.000000) scale(0.100000,-0.100000)"
fill="#000000" stroke="none">
<path d="M943 2334 c-94 -56 -143 -91 -143 -102 -1 -9 -16 -114 -34 -232 -19
-118 -32 -218 -30 -221 1 -3 75 31 162 75 l160 80 38 -17 c22 -9 147 -57 279
-106 132 -49 305 -115 385 -146 80 -31 156 -60 170 -65 14 -4 49 -17 78 -29
29 -11 55 -21 57 -21 3 0 5 67 5 149 l0 149 -107 63 c-139 79 -777 446 -823
472 -19 10 -39 23 -45 27 -6 5 -72 -29 -152 -76z"/>
<path d="M500 2081 c-58 -32 -170 -96 -250 -143 l-145 -84 -3 -366 -2 -366 57
-22 c164 -62 245 -90 252 -85 5 2 11 21 14 42 3 21 21 130 41 243 20 113 56
327 81 475 25 149 49 291 54 318 4 26 8 47 7 47 -1 0 -48 -27 -106 -59z"/>
<path d="M952 1448 l-123 -71 3 -145 3 -145 123 -69 123 -68 97 54 c53 29 111
61 127 71 l30 18 3 142 2 142 -125 72 c-69 39 -128 71 -132 71 -5 -1 -63 -33
-131 -72z"/>
<path d="M1735 1373 c-9 -54 -33 -183 -51 -288 -35 -194 -107 -621 -120 -708
l-6 -47 113 66 c63 36 161 93 219 127 58 33 122 71 143 84 l37 23 0 360 c0
349 -1 360 -20 370 -19 10 -286 110 -294 110 -2 0 -11 -44 -21 -97z"/>
<path d="M100 773 l0 -149 78 -44 c222 -125 330 -186 577 -328 149 -85 283
-163 299 -172 l28 -17 137 78 136 78 14 83 c30 187 59 393 56 396 -2 2 -71
-32 -153 -75 l-150 -78 -63 22 c-35 12 -215 79 -399 150 -401 154 -496 190
-532 198 l-28 7 0 -149z"/>
</g>
</svg>
